<?xml version="1.0" encoding="UTF-8"?>
<svg id="Capa_1" xmlns="http://www.w3.org/2000/svg" version="1.1" viewBox="0 0 800 800">
  <!-- Generator: Adobe Illustrator 29.1.0, SVG Export Plug-In . SVG Version: 2.1.0 Build 142)  -->
  <path d="M593,509.8c-23.1,0-43.7,9.6-58.5,25l-34.2-34.2c34.5-27.1,56.8-69.1,56.8-116.3s-17.5-79.5-45.5-106.4l34.2-34.2c13.3,9.5,29.5,15.2,47.1,15.2,44.9,0,81.4-36.4,81.4-81.4s-36.5-81.4-81.4-81.4-81.4,36.4-81.4,81.4,8.6,41.5,22.7,56.1l-34.2,34.3c-25.2-19.7-56.6-31.4-90.9-31.4s-67.2,12.3-92.5,32.7l-33.9-33.9c14.8-14.7,24-35.1,24-57.7,0-44.9-36.5-81.4-81.4-81.4s-81.4,36.5-81.4,81.4,36.5,81.4,81.4,81.4,32.5-5.1,45.6-13.9l34.3,34.3c-27.1,26.8-43.9,64-43.9,105.1s21.6,87.9,55.2,115l-33.9,34c-14.7-14.5-34.8-23.5-57.1-23.5-44.9,0-81.4,36.4-81.4,81.4s36.5,81.4,81.4,81.4,81.4-36.4,81.4-81.4-5.3-33-14.3-46l36.1-36.1-2.6-2.6c23.8,16.3,52.5,25.8,83.3,25.8s55.7-8.5,78.4-22.7l37.3,37.4c-8.3,12.8-13.2,27.8-13.2,44.3,0,44.9,36.4,81.4,81.4,81.4s81.4-36.4,81.4-81.4-36.5-81.5-81.4-81.5l-.2-.2ZM593,127.3c14.7,0,26.5,8.8,26.5,25.5s-11.9,35-26.5,35-26.6-18.2-26.6-35,11.9-25.5,26.6-25.5ZM541.6,215.4c0-7.1,6.1-15.8,13.7-19.4l16.7-7.9,11.6,24.2,5.9-16.1c1.2.3,2.3.6,3.6.6s2.3-.4,3.5-.6l5.6,15.3,11.3-23.6,17.2,8.2c7.5,3.6,13.7,12.3,13.7,19.5v12.3h-102.7v-12.3h0ZM225.3,127.3c14.7,0,26.6,8.8,26.6,25.5s-11.9,35-26.6,35-26.6-18.2-26.6-35,11.9-25.5,26.6-25.5ZM276.7,227.7h-102.7v-12.3c0-7.1,6.2-15.8,13.7-19.4l16.7-8,11.6,24.2,5.9-16.1c1.2.2,2.3.6,3.6.6s2.4-.4,3.6-.6l5.6,15.3,11.3-23.6,17.2,8.2c7.5,3.6,13.7,12.3,13.7,19.5v12.3h0ZM225.3,540.9c14.7,0,26.6,8.8,26.6,25.5s-11.9,35-26.6,35-26.6-18.2-26.6-35,11.9-25.5,26.6-25.5ZM276.7,641.3h-102.7v-12.3c0-7.1,6.2-15.9,13.7-19.4l16.7-8,11.6,24.2,5.9-16.1c1.2.3,2.3.6,3.6.6s2.4-.3,3.6-.6l5.6,15.3,11.3-23.6,17.2,8.2c7.5,3.6,13.7,12.3,13.7,19.5v12.4h0ZM384.5,258.6c-21.3,17.7-37.6,40.1-47.6,65h-40.6c17.9-33.2,50.1-57.5,88.2-65h0ZM281,384.3c0-14.4,2.5-28.2,6.9-41.1h42.6c-3.4,13-5.1,26.5-5.1,40.2s1.6,25,4.4,37h-43.5c-3.4-11.5-5.3-23.6-5.3-36.2h0ZM293.9,440.2h41.8c10.3,27.2,27.7,51.5,51.2,70.3-41-7.2-75.2-33.9-93-70.3ZM399.3,494.8c-18.6-14.9-32.9-33.6-42.1-54.6h42.1v54.6ZM399.3,420.5h-49.2c-3.2-11.9-5.1-24.3-5.1-37s2.2-27.3,6.1-40.2h48.1v77.3h0ZM399.3,323.5h-40.6c9.3-19.7,23-37.2,40.6-51.4v51.4ZM537.4,384.3c0,12.6-1.9,24.7-5.3,36.2h-43.5c2.8-12,4.4-24.3,4.4-37s-1.7-27.3-5.1-40.2h42.6c4.4,13,6.9,26.7,6.9,41.1h0ZM522,323.5h-40.6c-10-24.9-26.3-47.2-47.6-65,38.1,7.4,70.2,31.8,88.2,65ZM419.1,272.2c17.5,14.1,31.3,31.7,40.5,51.4h-40.5v-51.4ZM419.1,343.3h48.1c3.9,13,6.1,26.4,6.1,40.2s-1.8,25.1-5.1,37h-49.2v-77.3h0ZM419.1,440.2h42.1c-9.3,21-23.5,39.7-42.1,54.6v-54.6h0ZM482.7,440.2h41.8c-17.6,36.3-52,63-93,70.3,23.3-18.8,40.9-43.1,51.2-70.3h0ZM593,540.9c14.7,0,26.5,8.8,26.5,25.5s-11.9,35-26.5,35-26.6-18.2-26.6-35,11.9-25.5,26.6-25.5ZM644.4,641.3h-102.7v-12.3c0-7.1,6.2-15.9,13.7-19.4l16.7-8,11.6,24.2,6-16.1c1.2.3,2.3.6,3.5.6s2.4-.3,3.5-.6l5.6,15.3,11.3-23.6,17.2,8.2c7.5,3.6,13.7,12.3,13.7,19.5v12.4h0Z"/>
</svg>