<?xml version="1.0" encoding="UTF-8"?>
<svg id="Capa_1" xmlns="http://www.w3.org/2000/svg" version="1.1" viewBox="0 0 800 800">
  <!-- Generator: Adobe Illustrator 29.1.0, SVG Export Plug-In . SVG Version: 2.1.0 Build 142)  -->
  <path d="M686.6,447.6c0-94.2-56.7-175.3-137.7-211-.1-37.8-30.9-68.6-68.7-68.6h-114v-47.4c0-9.7-7.9-17.6-17.6-17.6h-18.6c-4.5-24.9-26.3-43.9-52.5-43.9s-48,19-52.5,43.9h-18.6c-9.7,0-17.6,7.9-17.6,17.6v320.1c0,9.7,7.9,17.6,17.6,17.6h.7v55.9c0,9.7,7.9,17.6,17.6,17.6h105.5c9.7,0,17.6-7.9,17.6-17.6v-55.9h.7c9.7,0,17.6-7.9,17.6-17.6v-135.1h72.8v23.2c0,9.7,7.9,17.6,17.6,17.6,55.3,0,100.3,45.1,100.3,100.6s-44.1,98.9-100.3,98.9-17.6,7.9-17.6,17.6v20h-236c-9.7,0-17.6,7.9-17.6,17.6s7.9,17.6,17.6,17.6h236v21.2h-241.4c-9.7,0-17.6,7.9-17.6,17.6v71.6c0,9.7,7.9,17.6,17.6,17.6h366.1c9.7,0,17.6-7.9,17.6-17.6v-71.6c0-5.7-2.8-10.8-7-14,16.1-9.4,31.2-20.9,44.8-34.2,43.5-42.7,67.5-100.1,67.5-161.5ZM277.7,94.4c6.5,0,12.3,3.5,15.5,8.7h-30.9c3.2-5.2,8.9-8.7,15.5-8.7ZM312.8,496.7h-70.3v-38.3h70.3v38.3h0ZM348.7,270.5c-9.7,0-17.6,7.9-17.6,17.6v135.1h-106.9V138.3h106.9v47.4c0,9.7,7.9,17.6,17.6,17.6h131.5c18.5,0,33.5,15.1,33.5,33.6s-15,33.6-33.5,33.6h-131.5ZM546.2,711.4H215.2v-36.4h331v36.4ZM474.2,639.1v-59.1c29.6-3.7,56.8-16.8,78.1-37.7,25.7-25.2,39.8-59,39.8-95.3,0-68.9-51.5-125.9-117.9-134.6v-6.7h6c25.4,0,47.6-13.9,59.5-34.5,65.9,31.3,111.7,98.6,111.7,176.4s-20.2,100.3-56.9,136.4c-32.5,31.9-74.7,51.1-120.2,55Z"/>
  <path d="M493.6,237.8c0-4.6-1.9-9.2-5.2-12.5-3.3-3.3-7.8-5.1-12.4-5.1s-9.2,1.9-12.4,5.1c-3.3,3.3-5.2,7.8-5.2,12.5s1.9,9.2,5.2,12.4c3.3,3.3,7.8,5.2,12.4,5.2s9.2-1.9,12.4-5.2c3.3-3.3,5.2-7.8,5.2-12.4Z"/>
</svg>