{
  "accessors": [
    {
      "bufferView": 2,
      "componentType": 5126,
      "count": 4230,
      "max": [
        11.432726860046387,
        8.327342987060547,
        13.43819808959961
      ],
      "min": [
        -10.066292762756348,
        -7.429992198944092,
        -13.43819808959961
      ],
      "type": "VEC3"
    },
    {
      "bufferView": 2,
      "byteOffset": 50760,
      "componentType": 5126,
      "count": 4230,
      "type": "VEC3"
    },
    {
      "bufferView": 1,
      "componentType": 5126,
      "count": 4230,
      "type": "VEC2"
    },
    {
      "bufferView": 0,
      "componentType": 5125,
      "count": 20124,
      "type": "SCALAR"
    },
    {
      "bufferView": 2,
      "byteOffset": 101520,
      "componentType": 5126,
      "count": 2831,
      "max": [
        10.437182426452637,
        9.4962739944458,
        57.85690689086914
      ],
      "min": [
        -10.207447052001953,
        -7.681412220001221,
        30.32773208618164
      ],
      "type": "VEC3"
    },
    {
      "bufferView": 2,
      "byteOffset": 135492,
      "componentType": 5126,
      "count": 2831,
      "type": "VEC3"
    },
    {
      "bufferView": 1,
      "byteOffset": 33840,
      "componentType": 5126,
      "count": 2831,
      "type": "VEC2"
    },
    {
      "bufferView": 0,
      "byteOffset": 80496,
      "componentType": 5125,
      "count": 13968,
      "type": "SCALAR"
    },
    {
      "bufferView": 2,
      "byteOffset": 169464,
      "componentType": 5126,
      "count": 9478,
      "max": [
        11.432726860046387,
        8.788941383361816,
        -30.515138626098633
      ],
      "min": [
        -10.091039657592773,
        -7.814880847930908,
        -57.45964813232422
      ],
      "type": "VEC3"
    },
    {
      "bufferView": 2,
      "byteOffset": 283200,
      "componentType": 5126,
      "count": 9478,
      "type": "VEC3"
    },
    {
      "bufferView": 1,
      "byteOffset": 56488,
      "componentType": 5126,
      "count": 9478,
      "type": "VEC2"
    },
    {
      "bufferView": 0,
      "byteOffset": 136368,
      "componentType": 5125,
      "count": 45030,
      "type": "SCALAR"
    }
  ],
  "asset": {
    "generator": "fab-model-conversion",
    "version": "2.0"
  },
  "bufferViews": [
    {
      "buffer": 0,
      "byteLength": 316488,
      "target": 34963
    },
    {
      "buffer": 0,
      "byteLength": 132312,
      "byteOffset": 316488,
      "byteStride": 8,
      "target": 34962
    },
    {
      "buffer": 0,
      "byteLength": 396936,
      "byteOffset": 448800,
      "byteStride": 12,
      "target": 34962
    }
  ],
  "buffers": [
    {
      "byteLength": 845736,
      "uri": "lootbox.bin"
    }
  ],
  "extensionsUsed": [
    "KHR_materials_emissive_strength",
    "KHR_materials_specular"
  ],
  "images": [
    {
      "uri": "textures/LootBox_02_SG_baseColor.png"
    },
    {
      "uri": "textures/LootBox_02_SG_metallicRoughness.png"
    },
    {
      "uri": "textures/LootBox_02_SG_emissive.png"
    },
    {
      "uri": "textures/LootBox_02_SG_specular_f0.png"
    },
    {
      "uri": "textures/LootBox_01_SG_baseColor.png"
    },
    {
      "uri": "textures/LootBox_01_SG_metallicRoughness.png"
    },
    {
      "uri": "textures/LootBox_01_SG_emissive.png"
    },
    {
      "uri": "textures/LootBox_01_SG_specular_f0.png"
    },
    {
      "uri": "textures/LootBox_03_SG_baseColor.png"
    },
    {
      "uri": "textures/LootBox_03_SG_metallicRoughness.png"
    },
    {
      "uri": "textures/LootBox_03_SG_emissive.png"
    },
    {
      "uri": "textures/LootBox_03_SG_specular_f0.png"
    }
  ],
  "materials": [
    {
      "doubleSided": true,
      "emissiveFactor": [
        1.0,
        1.0,
        1.0
      ],
      "emissiveTexture": {
        "index": 2
      },
      "extensions": {
        "KHR_materials_emissive_strength": {
          "emissiveStrength": 10
        },
        "KHR_materials_specular": {
          "specularColorFactor": [
            1.0,
            1.0,
            1.0
          ],
          "specularFactor": 1.0,
          "specularTexture": {
            "index": 3
          }
        }
      },
      "name": "LootBox_02_SG",
      "occlusionTexture": {
        "index": 1
      },
      "pbrMetallicRoughness": {
        "baseColorFactor": [
          0.9005741731784325,
          0.9005741731784325,
          0.9005741731784325,
          1.0
        ],
        "baseColorTexture": {
          "index": 0
        },
        "metallicFactor": 0.30933427606636515,
        "metallicRoughnessTexture": {
          "index": 1
        },
        "roughnessFactor": 0.32152478940888196
      }
    },
    {
      "doubleSided": true,
      "emissiveFactor": [
        1.0,
        1.0,
        1.0
      ],
      "emissiveTexture": {
        "index": 6
      },
      "extensions": {
        "KHR_materials_emissive_strength": {
          "emissiveStrength": 10
        },
        "KHR_materials_specular": {
          "specularColorFactor": [
            1.0,
            1.0,
            1.0
          ],
          "specularFactor": 1.0,
          "specularTexture": {
            "index": 7
          }
        }
      },
      "name": "LootBox_01_SG",
      "occlusionTexture": {
        "index": 5
      },
      "pbrMetallicRoughness": {
        "baseColorTexture": {
          "index": 4
        },
        "metallicRoughnessTexture": {
          "index": 5
        }
      }
    },
    {
      "doubleSided": true,
      "emissiveFactor": [
        1.0,
        1.0,
        1.0
      ],
      "emissiveTexture": {
        "index": 10
      },
      "extensions": {
        "KHR_materials_emissive_strength": {
          "emissiveStrength": 8.883836598359157
        },
        "KHR_materials_specular": {
          "specularColorFactor": [
            1.0,
            1.0,
            1.0
          ],
          "specularFactor": 1.0,
          "specularTexture": {
            "index": 11
          }
        }
      },
      "name": "LootBox_03_SG",
      "occlusionTexture": {
        "index": 9
      },
      "pbrMetallicRoughness": {
        "baseColorTexture": {
          "index": 8
        },
        "metallicRoughnessTexture": {
          "index": 9
        },
        "roughnessFactor": 0.6
      }
    }
  ],
  "meshes": [
    {
      "name": "LootBox_01_LootBox_02_SG_0",
      "primitives": [
        {
          "attributes": {
            "NORMAL": 1,
            "POSITION": 0,
            "TEXCOORD_0": 2
          },
          "indices": 3,
          "material": 0,
          "mode": 4
        }
      ]
    },
    {
      "name": "LootBox_02_LootBox_01_SG_0",
      "primitives": [
        {
          "attributes": {
            "NORMAL": 5,
            "POSITION": 4,
            "TEXCOORD_0": 6
          },
          "indices": 7,
          "material": 1,
          "mode": 4
        }
      ]
    },
    {
      "name": "LootBox_03_LootBox_03_SG_0",
      "primitives": [
        {
          "attributes": {
            "NORMAL": 9,
            "POSITION": 8,
            "TEXCOORD_0": 10
          },
          "indices": 11,
          "material": 2,
          "mode": 4
        }
      ]
    }
  ],
  "nodes": [
    {
      "children": [
        1
      ],
      "matrix": [
        1.0,
        0.0,
        0.0,
        0.0,
        0.0,
        2.220446049250313e-16,
        -1.0,
        0.0,
        0.0,
        1.0,
        2.220446049250313e-16,
        0.0,
        0.0,
        0.0,
        0.0,
        1.0
      ],
      "name": "Sketchfab_model"
    },
    {
      "children": [
        2
      ],
      "matrix": [
        0.009999999776482582,
        0.0,
        0.0,
        0.0,
        0.0,
        0.0,
        0.009999999776482582,
        0.0,
        0.0,
        -0.009999999776482582,
        0.0,
        0.0,
        0.0,
        0.0,
        0.0,
        1.0
      ],
      "name": "ef79c1903abb442bb7f544d3bcc95301.fbx"
    },
    {
      "children": [
        3
      ],
      "name": "RootNode"
    },
    {
      "children": [
        4,
        6,
        8
      ],
      "matrix": [
        2.220446049250313e-16,
        0.0,
        1.0,
        0.0,
        0.0,
        1.0,
        0.0,
        0.0,
        -1.0,
        0.0,
        2.220446049250313e-16,
        0.0,
        0.0,
        0.0,
        0.0,
        1.0
      ],
      "name": "Mesh_LootBox"
    },
    {
      "children": [
        5
      ],
      "name": "LootBox_01"
    },
    {
      "mesh": 0,
      "name": "LootBox_01_LootBox_02_SG_0"
    },
    {
      "children": [
        7
      ],
      "name": "LootBox_02"
    },
    {
      "mesh": 1,
      "name": "LootBox_02_LootBox_01_SG_0"
    },
    {
      "children": [
        9
      ],
      "name": "LootBox_03"
    },
    {
      "mesh": 2,
      "name": "LootBox_03_LootBox_03_SG_0"
    }
  ],
  "samplers": [
    {
      "magFilter": 9729,
      "minFilter": 9987,
      "wrapS": 10497,
      "wrapT": 10497
    }
  ],
  "scene": 0,
  "scenes": [
    {
      "name": "Sketchfab_Scene",
      "nodes": [
        0
      ]
    }
  ],
  "textures": [
    {
      "sampler": 0,
      "source": 0
    },
    {
      "sampler": 0,
      "source": 1
    },
    {
      "sampler": 0,
      "source": 2
    },
    {
      "sampler": 0,
      "source": 3
    },
    {
      "sampler": 0,
      "source": 4
    },
    {
      "sampler": 0,
      "source": 5
    },
    {
      "sampler": 0,
      "source": 6
    },
    {
      "sampler": 0,
      "source": 7
    },
    {
      "sampler": 0,
      "source": 8
    },
    {
      "sampler": 0,
      "source": 9
    },
    {
      "sampler": 0,
      "source": 10
    },
    {
      "sampler": 0,
      "source": 11
    }
  ]
}
