<?xml version="1.0" encoding="UTF-8"?>
<svg id="Layer_1" xmlns="http://www.w3.org/2000/svg" version="1.1" viewBox="0 0 800 800">
  <!-- Generator: Adobe Illustrator 29.1.0, SVG Export Plug-In . SVG Version: 2.1.0 Build 142)  -->
  <g id="Layer_17">
    <path d="M702.3,604l-40.4-158.3v-2.2c1-3.4,1.6-6.9,1.6-10.5V144.8c0-21-17-38-38-38H175.6c-21,0-38,17-38,38h0v288.1c0,3.6.6,7.1,1.6,10.5,0,0,0,1.4-1,2.2l-40.4,158.3c-1,3.8-1.4,7.8-1.4,11.7v29.5c.1,26.6,21.7,48,48.3,47.9.2,0,.4,0,.6,0h510.6c26.4-.1,47.8-21.5,47.9-47.9v-29.5c0-4-.4-7.9-1.4-11.7ZM178,147.2h444.8v283.1H178V147.2ZM663.3,645.3c-.1,4.1-3.4,7.4-7.5,7.5H145.2c-4.2,0-7.6-3.3-7.7-7.5v-31.3l36-143.2h453.7l36,145v29.5Z"/>
    <path d="M541.9,592.1h-283.1c-11.2,0-20.2,9.1-20.2,20.2s9.1,20.2,20.2,20.2h283.1c11.2,0,20.2-9.1,20.2-20.2s-9.1-20.2-20.2-20.2Z"/>
  </g>
</svg>