<?xml version="1.0" encoding="UTF-8"?>
<svg id="Layer_1" xmlns="http://www.w3.org/2000/svg" version="1.1" viewBox="0 0 800 800">
  <!-- Generator: Adobe Illustrator 29.1.0, SVG Export Plug-In . SVG Version: 2.1.0 Build 142)  -->
  <path d="M231.7,204.3v-56.2h56.2v56.2h-56.2ZM512.1,148h55.5v56.2h-55.5v-56.2ZM623.8,316v-111.7h56.2v224.2h-56.2v55.5h-56.2v56.2h56.2v56.2h56.2v55.5h-112.5v-55.5h-55.5v-56.2h-224.2v56.2h-56.2v55.5h-111.7v-55.5h56.2v-56.2h55.5v-56.2h-55.5v-55.5h-56.2v-224.2h56.2v111.7h55.5v-55.5h56.2v-56.2h56.2v56.2h111.7v-56.2h56.2v56.2h55.5v55.5h56.2ZM344.2,372.3v-56.2h-56.2v56.2h56.2ZM512.1,372.3v-56.2h-56.2v56.2h56.2Z"/>
</svg>